<svg xmlns="http://www.w3.org/2000/svg" version="1.1" xmlns:xlink="http://www.w3.org/1999/xlink" width="512" height="512" x="0" y="0" viewBox="0 0 512 512" style="enable-background:new 0 0 512 512" xml:space="preserve" class=""><g><path d="M330.991 161.14h64.28v235.695h-64.28z" style="" fill="#ddcbc0" data-original="#ddcbc0"></path><path d="M170.29 257.561h171.414v107.134H170.29z" style="" fill="#ddcbc0" data-original="#ddcbc0"></path><path d="M116.723 161.14h64.28v235.695h-64.28z" style="" fill="#ddcbc0" data-original="#ddcbc0"></path><path d="M330.994 380.761h26.783V273.627h25.314l-52.097-75.252zM181.006 380.761V198.375l-52.098 75.252h25.315v107.134z" style="" fill="#c4a89b" data-original="#c4a89b"></path><path d="M298.854 300.41v42.854h-85.708V300.41h-42.853v64.281h171.414V300.41z" style="" fill="#c4a89b" data-original="#c4a89b"></path><path d="M448.841 257.557v139.274h-74.994V332.55h-42.853v32.141H181.006V332.55h-42.853v64.281H63.159V257.557H20.305v246.408h471.39V257.557z" style="" fill="#c1b8bf" data-original="#c1b8bf"></path><path d="M256 396.831c23.667 0 42.854 19.187 42.854 42.854v64.28h-85.707v-64.28c-.001-23.669 19.185-42.854 42.853-42.854z" style="" fill="#ddcbc0" data-original="#ddcbc0"></path><path d="M256 396.831c-23.667 0-42.854 19.187-42.854 42.854v32.14c0-23.667 19.187-42.854 42.854-42.854 23.667 0 42.854 19.187 42.854 42.854v-32.14c0-23.669-19.187-42.854-42.854-42.854z" style="" fill="#c4a89b" data-original="#c4a89b"></path><path d="M256 96.856V54.002l64.28 21.427zM148.866 54.002V11.148l64.28 21.427z" style="" fill="#ff7956" data-original="#ff7956"></path><path d="M181.006 161.136h-64.28l32.14-74.994z" style="" fill="#78b9eb" data-original="#78b9eb"></path><path d="M363.134 54.002V11.148l64.28 21.427z" style="" fill="#ff7956" data-original="#ff7956"></path><path d="M395.274 161.136h-64.28l32.14-74.994z" style="" fill="#78b9eb" data-original="#78b9eb"></path><path d="M20.305 257.561h42.854v21.427H20.305zM448.838 257.561h42.854v21.427h-42.854zM20.305 300.415h42.854v21.427H20.305zM448.838 300.415h42.854v21.427h-42.854zM116.723 396.835h21.427v107.134h-21.427zM373.844 396.835h21.427v107.134h-21.427zM181.003 364.695h21.427v139.274h-21.427zM309.564 364.695h21.427v139.274h-21.427z" style="" fill="#998f97" data-original="#998f97"></path><path d="M352.421 257.557H159.579L256 128.996z" style="" fill="#3d9ae2" data-original="#3d9ae2"></path><path d="M190.535 216.282c18.725 12.534 41.24 19.848 65.465 19.848s46.739-7.313 65.465-19.848L256 128.996l-65.465 87.286z" style="" fill="#78b9eb" data-original="#78b9eb"></path><path d="m292.579 230.436-9.39-11.739 12.549-10.038 9.39 11.739-12.549 10.038zm-19.429-24.288-23.424-29.281 12.549-10.038 23.424 29.281-12.549 10.038z" style="" fill="#ffffff" data-original="#ffffff"></path><path d="M170.29 257.561h171.414v21.427H170.29zM116.723 161.14h64.28v21.427h-64.28zM330.991 161.14h64.28v21.427h-64.28z" style="" fill="#c4a89b" data-original="#c4a89b"></path><path d="M510.443 236.13h-16.07v13.392h-16.07V236.13h-16.07v13.392h-16.07V236.13h-16.07v29.462h10.713v123.204h-58.924v-48.21h10.713v-29.462h-16.07v13.392h-16.07v-13.392h-16.07v13.392h-16.07v-13.392h-16.07v29.462h10.713v16.07H189.041v-16.07h10.713v-29.462h-16.07v13.392h-16.07v-13.392h-16.07v13.392h-16.07v-13.392h-16.07v29.462h10.713v48.21H71.194V265.592h10.713V236.13h-16.07v13.392h-16.07V236.13h-16.07v13.392h-16.07V236.13H1.557v29.462H12.27V512H499.731V265.592h10.713V236.13zM55.124 265.592v26.784H28.34v-26.784h26.784zm0 230.338H28.34V308.445h26.784V495.93zm74.993 0H71.194v-91.064h58.924v91.064zm42.854 0h-26.784V340.586h26.784V495.93zm48.21 0v-56.245c0-19.198 15.62-34.819 34.819-34.819s34.819 15.62 34.819 34.819v56.245h-69.638zm101.778 0h-16.07v-56.245c0-28.059-22.829-50.889-50.889-50.889s-50.889 22.829-50.889 50.889v56.245h-16.07V372.726h133.918V495.93zm42.853 0h-26.784V340.586h26.784V495.93zm74.994 0h-58.924v-91.064h58.924v91.064zm16.07 0V308.445h26.784V495.93h-26.784zm26.784-203.555h-26.784v-26.784h26.784v26.784z" fill="#000000" opacity="1" data-original="#000000"></path><path d="M143.509 265.592h18.748v34.819h16.07v-34.819h155.344v34.819h16.07v-34.819h18.748L264.035 126.317v-23.67l81.654-27.218-97.724-32.575V126.317L143.509 265.592zM264.035 85.707V65.15l30.836 10.278-30.836 10.279zm-88.386 163.815L256 142.388l80.351 107.134H175.649z" fill="#000000" opacity="1" data-original="#000000"></path><path d="M124.761 169.171h48.21v13.392h16.07v-23.077l-32.14-74.994V59.794l81.654-27.218L140.831 0V84.493l-32.14 74.994v140.924h16.07v-131.24zm32.14-126.317V22.297l30.836 10.278-30.836 10.279zm-27.99 110.247 19.955-46.56 19.955 46.56h-39.91zM322.959 159.486v23.077h16.07v-13.392h48.21V300.41h16.07V159.486l-32.14-74.994V59.794l81.654-27.218L355.099 0V84.493l-32.14 74.993zm48.21-116.632V22.297l30.836 10.278-30.836 10.279zm-8.035 63.685 19.955 46.56h-39.91l19.955-46.56zM263.496 281.666h16.07v16.07h-16.07zM295.636 281.666h16.07v16.07h-16.07zM231.356 281.666h16.07v16.07h-16.07zM199.216 281.666h16.07v16.07h-16.07zM231.356 313.806h16.07v16.07h-16.07zM263.496 313.806h16.07v16.07h-16.07z" fill="#000000" opacity="1" data-original="#000000"></path><path d="M140.828 214.707h16.07v16.07h-16.07zM140.828 182.567h16.07v16.07h-16.07zM355.096 182.567h16.07v16.07h-16.07zM355.096 214.707h16.07v16.07h-16.07zM87.261 418.262h16.07v16.07h-16.07zM87.261 450.402h16.07v16.07h-16.07zM408.663 450.402h16.07v16.07h-16.07zM408.663 418.262h16.07v16.07h-16.07z" fill="#000000" opacity="1" data-original="#000000"></path></g></svg>