<svg xmlns="http://www.w3.org/2000/svg" version="1.1" xmlns:xlink="http://www.w3.org/1999/xlink" width="512" height="512" x="0" y="0" viewBox="0 0 128 128" style="enable-background:new 0 0 512 512" xml:space="preserve" class=""><g><path fill="#999999" d="M91 87.8c20.74 2.74 35 8.54 35 15.25C126 112.4 98.24 120 64 120s-62-7.6-62-16.95c0-7 15.56-13 37.76-15.59z" opacity="1" data-original="#999999"></path><path fill="#6d6d6d" d="M72.8 47.62 85.55 61l7 39.91c0 3.79-12.79 6.87-28.56 6.87s-28.55-3.04-28.55-6.78l12.07-35.8-5.06-13.37 14.09-17.55-9.6-12-28.66-.57L51.44 8l17.34 10.17 11.63 12.58-4.77 10.58" opacity="1" data-original="#6d6d6d"></path><path fill="#2b2b2b" d="M91.95 85.92 87.52 60.7a2 2 0 0 0-.52-1L74.25 46.24a2 2 0 1 0-2.9 2.76l12.33 13 4.59 26.13a2 2 0 0 0 0 .4c-.3 1.35-8 4.89-23.48 4.89-14 0-21.58-2.87-23.16-4.41l7.81-23.15a2 2 0 0 0 0-1.35l-4.65-12.3L58.1 35.53a2 2 0 0 0 0-2.5l-9.6-12a2 2 0 0 0-1.5-.79l-19.06-.38 23.36-9.62 16.22 9.5L78 31.14l-4.23 9.37a2 2 0 0 0 3.65 1.65l4.77-10.58a2 2 0 0 0-.35-2.18L70.25 16.81a2 2 0 0 0-.46-.37L52.46 6.29a2 2 0 0 0-1.77-.12L17.52 19.82a2 2 0 0 0 .72 3.85l27.76.55 8 10.05-13.11 16.31a2 2 0 0 0-.31 2l4.8 12.7-6.87 20.32C35.19 86 32 86.49 29 87a2 2 0 0 0 .36 4 2 2 0 0 0 .37 0c2.35-.43 4.83-.82 7.39-1.17l-3.54 10.5a2 2 0 0 0-.1.64c0 7 19.21 8.87 30.56 8.87S94.56 108 94.56 101a2 2 0 0 0 0-.35l-1.89-10.59c21.5 3.1 31.33 8.85 31.33 13 0 2.65-4.38 6.68-16.69 10C95.77 116.25 80.39 118 64 118s-31.77-1.74-43.31-4.89C8.38 109.74 4 105.71 4 103.05s4.7-7 17.9-10.36a2 2 0 0 0-1-3.87C11.36 91.28 0 95.75 0 103.05 0 115.35 33 122 64 122s64-6.63 64-18.93c0-7.68-13.46-14.07-36.05-17.15zm-54.44 15.16L40.25 93c3.78 2.4 10.58 3.62 16.93 4.14v8.52c-11.72-.75-18.76-3.16-19.67-4.58zm23.67 4.7v-8.45c1.25 0 2.45.07 3.57.07h1.3v8.4H64q-1.44.02-2.82-.01zm8.87-.13v-8.4c6.87-.39 14.82-1.59 19.08-4.23l1.4 7.94c-.81 1.51-8.16 4.04-20.48 4.7z" opacity="1" data-original="#2b2b2b"></path></g></svg>