<svg xmlns="http://www.w3.org/2000/svg" version="1.1" xmlns:xlink="http://www.w3.org/1999/xlink" width="512" height="512" x="0" y="0" viewBox="0 0 512 512" style="enable-background:new 0 0 512 512" xml:space="preserve" class=""><g><path d="M512 256C512 114.844 397.167 0 256 0S0 114.844 0 256c0 69.727 30.309 121.482 89.641 154.245C101.427 492.888 137.385 512 256 512c115.302 0 152.566-17.882 165.385-94.788C481.357 386.198 512 332.13 512 256z" style="" fill="#303c42" data-original="#303c42"></path><path d="M488.715 285.333C463.018 261.271 448 227.522 448 192c0-18.168 3.918-36.04 11.402-52.533 19.776 34.38 31.264 74.103 31.264 116.533.001 10.32-.771 19.995-1.951 29.333z" style="" fill="#f2f2f2" data-original="#f2f2f2"></path><circle cx="256" cy="149.333" r="106.667" style="" fill="#f2f2f2" data-original="#f2f2f2"></circle><path d="M52.598 139.467C60.082 155.96 64 173.832 64 192c0 35.251-14.844 68.836-40.258 92.868-1.428-9.247-2.409-18.764-2.409-28.868 0-42.43 11.489-82.152 31.265-116.533z" style="" fill="#f2f2f2" data-original="#f2f2f2"></path><path d="M256 490.667c-124.896 0-140.979-20.281-147.854-106.24 30.708-33.25 86.833-53.76 147.854-53.76s117.146 20.51 147.854 53.76c-6.875 85.958-22.958 106.24-147.854 106.24z" style="" fill="#fee4d0" data-original="#fee4d0"></path><path d="M424.6 390.984c.292-3.152.632-6.142.879-9.453a10.743 10.743 0 0 0-2.521-7.719C389.02 334.041 325.041 309.333 256 309.333s-133.021 24.708-166.958 64.479a10.743 10.743 0 0 0-2.521 7.719c.057.76.143 1.418.202 2.169-28.641-19.128-47.729-44.467-57.525-75.514C64.376 279.922 85.333 237.188 85.333 192c0-25.608-6.943-50.56-19.53-72.911 40.25-55.755 104.251-93.048 177.122-97.092C178.461 28.566 128 83.163 128 149.333c0 70.583 57.417 128 128 128s128-57.417 128-128c0-66.171-50.461-120.767-114.926-127.337 72.871 4.044 136.872 41.337 177.122 97.092-12.587 22.352-19.53 47.303-19.53 72.911 0 45.802 21.447 88.967 57.414 117.219-9.359 35.352-29.006 62.456-59.48 81.766z" style="" fill="#d32f2f" data-original="#d32f2f"></path><path d="M488.715 285.333C463.018 261.271 448 227.522 448 192c0-18.168 3.918-36.04 11.402-52.533 19.776 34.38 31.264 74.103 31.264 116.533.001 10.32-.771 19.995-1.951 29.333z" style="" fill="#f2f2f2" data-original="#f2f2f2"></path><path d="M424.6 390.984c.292-3.152.632-6.142.879-9.453a10.743 10.743 0 0 0-2.521-7.719C389.02 334.041 325.041 309.333 256 309.333s-133.021 24.708-166.958 64.479a10.743 10.743 0 0 0-2.521 7.719c.057.76.143 1.418.202 2.169-28.641-19.128-47.729-44.467-57.525-75.514C64.376 279.922 85.333 237.188 85.333 192c0-25.608-6.943-50.56-19.53-72.911 40.25-55.755 104.251-93.048 177.122-97.092C178.461 28.566 128 83.163 128 149.333c0 70.583 57.417 128 128 128s128-57.417 128-128c0-66.171-50.461-120.767-114.926-127.337 72.871 4.044 136.872 41.337 177.122 97.092-12.587 22.352-19.53 47.303-19.53 72.911 0 45.802 21.447 88.967 57.414 117.219-9.359 35.352-29.006 62.456-59.48 81.766z" style="" fill="#d32f2f" data-original="#d32f2f"></path><linearGradient id="a" x1="-38.17" x2="-29.916" y1="631.934" y2="623.68" gradientTransform="matrix(21.3333 0 0 -21.3333 996.333 13791.667)" gradientUnits="userSpaceOnUse"><stop offset="0" style="stop-color:#000000;stop-opacity:0.1" stop-color="#000000;stop-opacity:0.1"></stop><stop offset="1" style="stop-color:#000000;stop-opacity:0" stop-color="#000000;stop-opacity:0"></stop></linearGradient><path d="M256 490.667c124.896 0 140.979-20.281 147.854-106.24-30.708-33.25-86.833-53.76-147.854-53.76s-117.146 20.51-147.854 53.76l105.138 105.138c12.616.758 26.752 1.102 42.716 1.102z" style="fill:url(#a);" fill=""></path><path d="M197.333 362.667c-8.313 0-16 5.167-16 42.667s7.688 42.667 16 42.667 16-5.167 16-42.667-7.687-42.667-16-42.667zM314.667 448c8.313 0 16-5.167 16-42.667s-7.688-42.667-16-42.667-16 5.167-16 42.667 7.687 42.667 16 42.667z" style="" fill="#303c42" data-original="#303c42"></path><linearGradient id="b" x1="-45.683" x2="-24.059" y1="639.332" y2="629.249" gradientTransform="matrix(21.3333 0 0 -21.3333 996.333 13791.667)" gradientUnits="userSpaceOnUse"><stop offset="0" style="stop-color:#FFFFFF;stop-opacity:0.2" stop-color="#ffffff;stop-opacity:0.2"></stop><stop offset="1" style="stop-color:#FFFFFF;stop-opacity:0" stop-color="#ffffff;stop-opacity:0"></stop></linearGradient><path d="M512 256C512 114.844 397.167 0 256 0S0 114.844 0 256c0 69.727 30.309 121.482 89.641 154.245C101.427 492.888 137.385 512 256 512c115.302 0 152.566-17.882 165.385-94.788C481.357 386.198 512 332.13 512 256z" style="fill:url(#b);" fill=""></path><path d="M23.742 284.868c3.85-3.642 7.37-7.566 10.72-11.618-4.297-1.536-8.4-3.263-12.57-4.923.422 5.63 1.018 11.156 1.85 16.541zM449.07 207.586c3.703 29.678 17.746 57.241 39.645 77.747 1.18-9.339 1.952-19.013 1.952-29.333 0-28.292-5.501-55.197-14.768-80.301-7.464 11.19-16.491 21.837-26.829 31.887zM55.904 280.103c-7.65 10.348-16.496 19.88-26.706 28.083 9.796 31.047 28.884 56.387 57.525 75.514-.059-.751-.145-1.409-.202-2.169a10.743 10.743 0 0 1 2.521-7.719c33.938-39.771 97.917-64.479 166.958-64.479s133.021 24.708 166.958 64.479a10.743 10.743 0 0 1 2.521 7.719c-.247 3.311-.587 6.301-.879 9.453 30.474-19.31 50.121-46.414 59.48-81.766-27.411-21.531-46.306-51.745-53.784-85.165-57.753 45.495-145.493 74.613-243.63 74.613-46.687.001-90.877-6.761-130.762-18.563z" style="opacity:0.1;enable-background:new ;" fill="#000000" opacity="1" data-original="#000000" class=""></path></g></svg>