<svg xmlns="http://www.w3.org/2000/svg" version="1.1" xmlns:xlink="http://www.w3.org/1999/xlink" width="512" height="512" x="0" y="0" viewBox="0 0 682.667 682.667" style="enable-background:new 0 0 512 512" xml:space="preserve" class=""><g><defs><clipPath id="a" clipPathUnits="userSpaceOnUse"><path d="M0 512h512V0H0Z" fill="#000000" opacity="1" data-original="#000000"></path></clipPath></defs><g clip-path="url(#a)" transform="matrix(1.33333 0 0 -1.33333 0 682.667)"><path d="M0 0v-60h20v-40h20v-40h10v-40h50v-40h50v-19.592c17.99-4.189 36.735-6.408 56-6.408 135.862 0 246 110.138 246 246z" style="fill-opacity:1;fill-rule:nonzero;stroke:none" transform="translate(50 256)" fill="#b6bccf" data-original="#b6bccf" class=""></path><path d="M0 0v-60h20v-40h20v-40h10v-40h50v-40h50v-19.592c17.99-4.189 36.735-6.408 56-6.408 135.862 0 246 110.138 246 246z" style="stroke-width:20;stroke-linecap:round;stroke-linejoin:round;stroke-miterlimit:10;stroke-dasharray:600, 45, 0, 45;stroke-dashoffset:0;stroke-opacity:1" transform="translate(50 256)" fill="none" stroke="#201b1b" stroke-width="20" stroke-linecap="round" stroke-linejoin="round" stroke-miterlimit="10" stroke-dasharray="600, 45, 0, 45" stroke-dashoffset="0" stroke-opacity="" data-original="#201b1b" class=""></path><path d="M0 0v-40h20v-40h-40v-80h452C432-24.138 321.862 86 186 86 131.333 86 80.838 68.158 40 37.993V0Z" style="fill-opacity:1;fill-rule:nonzero;stroke:none" transform="translate(70 416)" fill="#b6bccf" data-original="#b6bccf" class=""></path><path d="M0 0v-40h20v-40h-40v-80h452C432-24.138 321.862 86 186 86 131.333 86 80.838 68.158 40 37.993V0Z" style="stroke-width:20;stroke-linecap:round;stroke-linejoin:round;stroke-miterlimit:10;stroke-dasharray:none;stroke-opacity:1" transform="translate(70 416)" fill="none" stroke="#201b1b" stroke-width="20" stroke-linecap="round" stroke-linejoin="round" stroke-miterlimit="10" stroke-dasharray="none" stroke-opacity="" data-original="#201b1b" class=""></path><path d="M0 0c0 41.421 33.579 75 75 75s75-33.579 75-75-33.579-75-75-75S0-41.421 0 0" style="fill-opacity:1;fill-rule:nonzero;stroke:none" transform="translate(239 371)" fill="#f9f9f9" data-original="#f9f9f9"></path><path d="M0 0c0 41.421 33.579 75 75 75s75-33.579 75-75-33.579-75-75-75S0-41.421 0 0Z" style="stroke-width:20;stroke-linecap:round;stroke-linejoin:round;stroke-miterlimit:10;stroke-dasharray:none;stroke-opacity:1" transform="translate(239 371)" fill="none" stroke="#201b1b" stroke-width="20" stroke-linecap="round" stroke-linejoin="round" stroke-miterlimit="10" stroke-dasharray="none" stroke-opacity="" data-original="#201b1b" class=""></path><path d="M0 0c0 13.807 11.193 25 25 25S50 13.807 50 0 38.807-25 25-25 0-13.807 0 0" style="fill-opacity:1;fill-rule:nonzero;stroke:none" transform="translate(289 371)" fill="#b6bccf" data-original="#b6bccf" class=""></path><path d="M0 0c0 13.807 11.193 25 25 25S50 13.807 50 0 38.807-25 25-25 0-13.807 0 0Z" style="stroke-width:20;stroke-linecap:round;stroke-linejoin:round;stroke-miterlimit:10;stroke-dasharray:none;stroke-opacity:1" transform="translate(289 371)" fill="none" stroke="#201b1b" stroke-width="20" stroke-linecap="round" stroke-linejoin="round" stroke-miterlimit="10" stroke-dasharray="none" stroke-opacity="" data-original="#201b1b" class=""></path><path d="M0 0h40" style="stroke-width:20;stroke-linecap:round;stroke-linejoin:round;stroke-miterlimit:10;stroke-dasharray:none;stroke-opacity:1" transform="translate(139 206)" fill="none" stroke="#201b1b" stroke-width="20" stroke-linecap="round" stroke-linejoin="round" stroke-miterlimit="10" stroke-dasharray="none" stroke-opacity="" data-original="#201b1b" class=""></path><path d="M0 0h10" style="stroke-width:20;stroke-linecap:round;stroke-linejoin:round;stroke-miterlimit:10;stroke-dasharray:none;stroke-opacity:1" transform="translate(149 166)" fill="none" stroke="#201b1b" stroke-width="20" stroke-linecap="round" stroke-linejoin="round" stroke-miterlimit="10" stroke-dasharray="none" stroke-opacity="" data-original="#201b1b" class=""></path><path d="M0 0h60" style="stroke-width:20;stroke-linecap:round;stroke-linejoin:round;stroke-miterlimit:10;stroke-dasharray:none;stroke-opacity:1" transform="translate(209 126)" fill="none" stroke="#201b1b" stroke-width="20" stroke-linecap="round" stroke-linejoin="round" stroke-miterlimit="10" stroke-dasharray="none" stroke-opacity="" data-original="#201b1b" class=""></path><path d="M0 0h10" style="stroke-width:20;stroke-linecap:round;stroke-linejoin:round;stroke-miterlimit:10;stroke-dasharray:none;stroke-opacity:1" transform="translate(219 86)" fill="none" stroke="#201b1b" stroke-width="20" stroke-linecap="round" stroke-linejoin="round" stroke-miterlimit="10" stroke-dasharray="none" stroke-opacity="" data-original="#201b1b" class=""></path><path d="M0 0h40" style="stroke-width:20;stroke-linecap:round;stroke-linejoin:round;stroke-miterlimit:10;stroke-dasharray:none;stroke-opacity:1" transform="translate(299 86)" fill="none" stroke="#201b1b" stroke-width="20" stroke-linecap="round" stroke-linejoin="round" stroke-miterlimit="10" stroke-dasharray="none" stroke-opacity="" data-original="#201b1b" class=""></path><path d="M0 0h20" style="stroke-width:20;stroke-linecap:round;stroke-linejoin:round;stroke-miterlimit:10;stroke-dasharray:none;stroke-opacity:1" transform="translate(150 76)" fill="none" stroke="#201b1b" stroke-width="20" stroke-linecap="round" stroke-linejoin="round" stroke-miterlimit="10" stroke-dasharray="none" stroke-opacity="" data-original="#201b1b" class=""></path><path d="M0 0h20" style="stroke-width:20;stroke-linecap:round;stroke-linejoin:round;stroke-miterlimit:10;stroke-dasharray:none;stroke-opacity:1" transform="translate(90 156)" fill="none" stroke="#201b1b" stroke-width="20" stroke-linecap="round" stroke-linejoin="round" stroke-miterlimit="10" stroke-dasharray="none" stroke-opacity="" data-original="#201b1b" class=""></path><path d="M0 0h50" style="stroke-width:20;stroke-linecap:round;stroke-linejoin:round;stroke-miterlimit:10;stroke-dasharray:none;stroke-opacity:1" transform="translate(40 116)" fill="none" stroke="#201b1b" stroke-width="20" stroke-linecap="round" stroke-linejoin="round" stroke-miterlimit="10" stroke-dasharray="none" stroke-opacity="" data-original="#201b1b" class=""></path><path d="M0 0h40" style="stroke-width:20;stroke-linecap:round;stroke-linejoin:round;stroke-miterlimit:10;stroke-dasharray:none;stroke-opacity:1" transform="translate(30 156)" fill="none" stroke="#201b1b" stroke-width="20" stroke-linecap="round" stroke-linejoin="round" stroke-miterlimit="10" stroke-dasharray="none" stroke-opacity="" data-original="#201b1b" class=""></path><path d="M0 0h30" style="stroke-width:20;stroke-linecap:round;stroke-linejoin:round;stroke-miterlimit:10;stroke-dasharray:none;stroke-opacity:1" transform="translate(20 196)" fill="none" stroke="#201b1b" stroke-width="20" stroke-linecap="round" stroke-linejoin="round" stroke-miterlimit="10" stroke-dasharray="none" stroke-opacity="" data-original="#201b1b" class=""></path><path d="M0 0h40" style="stroke-width:20;stroke-linecap:round;stroke-linejoin:round;stroke-miterlimit:10;stroke-dasharray:none;stroke-opacity:1" transform="translate(10 286)" fill="none" stroke="#201b1b" stroke-width="20" stroke-linecap="round" stroke-linejoin="round" stroke-miterlimit="10" stroke-dasharray="none" stroke-opacity="" data-original="#201b1b" class=""></path><path d="M0 0h40" style="stroke-width:20;stroke-linecap:round;stroke-linejoin:round;stroke-miterlimit:10;stroke-dasharray:none;stroke-opacity:1" transform="translate(90 336)" fill="none" stroke="#201b1b" stroke-width="20" stroke-linecap="round" stroke-linejoin="round" stroke-miterlimit="10" stroke-dasharray="none" stroke-opacity="" data-original="#201b1b" class=""></path><path d="M0 0h40" style="stroke-width:20;stroke-linecap:round;stroke-linejoin:round;stroke-miterlimit:10;stroke-dasharray:none;stroke-opacity:1" transform="translate(110 416)" fill="none" stroke="#201b1b" stroke-width="20" stroke-linecap="round" stroke-linejoin="round" stroke-miterlimit="10" stroke-dasharray="none" stroke-opacity="" data-original="#201b1b" class=""></path><path d="M0 0h20" style="stroke-width:20;stroke-linecap:round;stroke-linejoin:round;stroke-miterlimit:10;stroke-dasharray:none;stroke-opacity:1" transform="translate(50 376)" fill="none" stroke="#201b1b" stroke-width="20" stroke-linecap="round" stroke-linejoin="round" stroke-miterlimit="10" stroke-dasharray="none" stroke-opacity="" data-original="#201b1b" class=""></path><path d="M0 0h20" style="stroke-width:20;stroke-linecap:round;stroke-linejoin:round;stroke-miterlimit:10;stroke-dasharray:none;stroke-opacity:1" transform="translate(90 376)" fill="none" stroke="#201b1b" stroke-width="20" stroke-linecap="round" stroke-linejoin="round" stroke-miterlimit="10" stroke-dasharray="none" stroke-opacity="" data-original="#201b1b" class=""></path><path d="M0 0h20" style="stroke-width:20;stroke-linecap:round;stroke-linejoin:round;stroke-miterlimit:10;stroke-dasharray:none;stroke-opacity:1" transform="translate(70 196)" fill="none" stroke="#201b1b" stroke-width="20" stroke-linecap="round" stroke-linejoin="round" stroke-miterlimit="10" stroke-dasharray="none" stroke-opacity="" data-original="#201b1b" class=""></path></g></g></svg>