<svg xmlns="http://www.w3.org/2000/svg" version="1.1" xmlns:xlink="http://www.w3.org/1999/xlink" width="512" height="512" x="0" y="0" viewBox="0 0 24 24" style="enable-background:new 0 0 512 512" xml:space="preserve"><g><linearGradient id="b" x1="11.513" x2="15.055" y1="10.569" y2="14.902" gradientUnits="userSpaceOnUse"><stop offset="0" stop-opacity=".2"></stop><stop offset="1" stop-opacity="0"></stop></linearGradient><linearGradient id="a"><stop offset="0" stop-opacity=".1"></stop><stop offset="1" stop-opacity="0"></stop></linearGradient><linearGradient xlink:href="#a" id="c" x1="14.938" x2="21.651" y1="10.636" y2="17.349" gradientUnits="userSpaceOnUse"></linearGradient><linearGradient xlink:href="#a" id="d" x1="4.171" x2="9.117" y1="11.969" y2="16.914" gradientUnits="userSpaceOnUse"></linearGradient><linearGradient id="e" x1="2.529" x2="24.887" y1="8.283" y2="18.709" gradientUnits="userSpaceOnUse"><stop offset="0" stop-color="#fff" stop-opacity=".2"></stop><stop offset="1" stop-color="#fff" stop-opacity="0"></stop></linearGradient><path fill="#303c42" d="M23 17.278V14a10.93 10.93 0 0 0-2-6.305V3.5a.5.5 0 0 0-.5-.5h-2a.5.5 0 0 0-.5.5v1.292A10.93 10.93 0 0 0 12 3C5.935 3 1 7.935 1 14v3.278c-.595.347-1 .985-1 1.722v1.5a.5.5 0 0 0 .5.5h23a.5.5 0 0 0 .5-.5V19c0-.737-.405-1.375-1-1.722z" opacity="1" data-original="#303c42"></path><path fill="#a1887f" d="M19 4h1v2.474a11.24 11.24 0 0 0-1-.952z" opacity="1" data-original="#a1887f"></path><path fill="#d32f2f50" d="M19 4h1v2.474a11.24 11.24 0 0 0-1-.952z" opacity="1" data-original="#d32f2f50"></path><path fill="#ffd553" d="M2 14C2 8.486 6.486 4 12 4s10 4.486 10 10v3h-6.396c.848-.904 1.396-2.339 1.396-4 0-2.804-1.537-5-3.5-5-.216 0-.424.037-.628.088A5.036 5.036 0 0 0 12 8c-2.757 0-5 2.243-5 5 0 1.641.806 3.088 2.031 4H2z" opacity="1" data-original="#ffd553"></path><path fill="#b4a09920" d="M2 14C2 8.486 6.486 4 12 4s10 4.486 10 10v3h-6.396c.848-.904 1.396-2.339 1.396-4 0-2.804-1.537-5-3.5-5-.216 0-.424.037-.628.088A5.036 5.036 0 0 0 12 8c-2.757 0-5 2.243-5 5 0 1.641.806 3.088 2.031 4H2z" opacity="1" data-original="#b4a09920"></path><path fill="#fff" d="M2.5 14.5c0-5.514 4.486-10 10-10a9.951 9.951 0 0 1 6.806 2.694C17.479 5.234 14.884 4 12 4 6.486 4 2 8.486 2 14v3h.5z" opacity=".2"></path><path fill="#303c42" d="M18.5 14h2a.5.5 0 0 0 .5-.5v-2c0-.827-.673-1.5-1.5-1.5s-1.5.673-1.5 1.5v2a.5.5 0 0 0 .5.5z"></path><path fill="#bbdefb" d="M19 11.5a.5.5 0 0 1 1 0V13h-1z"></path><path fill="#303c42" d="M4.5 10c-.827 0-1.5.673-1.5 1.5v2a.5.5 0 0 0 .5.5h2a.5.5 0 0 0 .5-.5v-2c0-.827-.673-1.5-1.5-1.5z"></path><path fill="#bbdefb" d="M5 13H4v-1.5a.5.5 0 0 1 1 0z"></path><path fill="#7cb342" d="M11 13c0-2.168 1.145-4 2.5-4s2.5 1.832 2.5 4-1.145 4-2.5 4-2.5-1.832-2.5-4z"></path><path fill="#7cb342" d="M11 13c0-2.168 1.145-4 2.5-4s2.5 1.832 2.5 4-1.145 4-2.5 4-2.5-1.832-2.5-4z"></path><path fill="url(#b)" d="M11 13c0-2.168 1.145-4 2.5-4s2.5 1.832 2.5 4-1.145 4-2.5 4-2.5-1.832-2.5-4z"></path><path fill="#ffd553" d="M23 20H1v-1c0-.551.448-1 1-1h20c.552 0 1 .449 1 1z"></path><path fill="#b4a099" d="M23 20H1v-1c0-.551.448-1 1-1h20c.552 0 1 .449 1 1z" opacity=".2"></path><path fill="#fff" d="M22 18H2c-.552 0-1 .449-1 1v.5c0-.551.448-1 1-1h20c.552 0 1 .449 1 1V19c0-.551-.448-1-1-1z" opacity=".2"></path><path fill="#303c42" d="M13.212 13c0 .493.302.718.582.718.281 0 .583-.225.583-.718 0-.984-1.165-.988-1.165 0z"></path><path fill="url(#c)" d="m21.73 11.73-.89-.89c.099.2.16.422.16.66v2a.5.5 0 0 1-.5.5h-2a.5.5 0 0 1-.5-.5v-2l-1.963-1.963C16.633 10.43 17 11.64 17 13c0 1.661-.548 3.096-1.396 4H22v-3a9.94 9.94 0 0 0-.27-2.27z"></path><path fill="url(#d)" d="M7 13c0-.344.035-.68.102-1.005l-1.478-1.478c.231.264.376.605.376.983v2a.5.5 0 0 1-.5.5h-2a.492.492 0 0 1-.339-.137L6.297 17H9.03C7.806 16.088 7 14.641 7 13z"></path><path fill="url(#e)" d="M23 17.278V14a10.93 10.93 0 0 0-2-6.305V3.5a.5.5 0 0 0-.5-.5h-2a.5.5 0 0 0-.5.5v1.292A10.93 10.93 0 0 0 12 3C5.935 3 1 7.935 1 14v3.278c-.595.347-1 .985-1 1.722v1.5a.5.5 0 0 0 .5.5h23a.5.5 0 0 0 .5-.5V19c0-.737-.405-1.375-1-1.722z"></path><path fill="#4d4d4d" d="M8 13c0-1.979 1.448-3.616 3.339-3.933C10.525 9.975 10 11.377 10 13s.525 3.025 1.339 3.933C9.448 16.616 8 14.979 8 13z"></path><path d="M8.5 13.567c0-1.556.901-2.89 2.203-3.547a4.71 4.71 0 0 1 .636-.953C9.448 9.384 8 11.021 8 13c0 1.147.496 2.169 1.273 2.896a3.935 3.935 0 0 1-.773-2.329z" opacity=".1"></path></g></svg>