<svg xmlns="http://www.w3.org/2000/svg" version="1.1" xmlns:xlink="http://www.w3.org/1999/xlink" width="512" height="512" x="0" y="0" viewBox="0 0 682.667 682.667" style="enable-background:new 0 0 512 512" xml:space="preserve" class=""><g><defs><clipPath id="a" clipPathUnits="userSpaceOnUse"><path d="M0 512h512V0H0Z" fill="#000000" opacity="1" data-original="#000000"></path></clipPath></defs><g clip-path="url(#a)" transform="matrix(1.33333 0 0 -1.33333 0 682.667)"><path d="m0 0 3.466-34.288 34.288-3.437 85.31 85.308-6.022 31.816-31.704 5.909C56.901 56.872 28.465 28.436 0 0" style="fill-opacity:1;fill-rule:evenodd;stroke:none" transform="translate(54.459 92.211)" fill="#375e7d" data-original="#375e7d"></path><path d="M0 0c16.591-16.59 43.465-16.59 60.056 0 9.431 9.432 13.522 22.215 12.215 34.544L53.38 53.407 34.517 72.269C22.216 73.576 9.432 69.514 0 60.054-16.59 43.492-16.59 16.59 0 0" style="fill-opacity:1;fill-rule:evenodd;stroke:none" transform="translate(19.942 19.942)" fill="#ffd772" data-original="#ffd772"></path><path d="m0 0 220.902 220.87c8.835 8.834 10.511 10.539 14.375 22.442l20.88 64.457c1.307 4.09-1.306 6.732-5.397 5.397l-64.458-20.88c-11.904-3.863-13.609-5.539-22.444-14.374L-57.016 57.042Z" style="fill-opacity:1;fill-rule:evenodd;stroke:none" transform="translate(248.004 190.985)" fill="#f9f7f8" data-original="#f9f7f8"></path><path d="m0 0 44.856-20.766L64.288-1.307c5.539 5.539 6.619 10.511 6.477 15.909l-1.449 54.712-54.743 1.449c-5.369.142-10.369-.937-15.908-6.477l-19.432-19.431Z" style="fill-opacity:1;fill-rule:evenodd;stroke:none" transform="translate(177.24 177.236)" fill="#ffd772" data-original="#ffd772"></path><path d="m0 0 18.863-18.862 18.864-18.863 26.305-26.306c-6.534-12.556-5.766-27.157 5.994-38.918 11.761-11.761 34.09-13.011 47.101 0 12.983 13.011 12.983 34.089 0 47.072L82.299-21.05 49.487 11.761 16.676 44.572l-34.828 34.827c-13.012 13.011-34.09 13.011-47.102 0-12.982-13.01-11.761-35.31 0-47.099 11.79-11.761 26.392-12.528 38.948-5.994z" style="fill-opacity:1;fill-rule:evenodd;stroke:none" transform="translate(139.797 177.52)" fill="#fe7c42" data-original="#fe7c42"></path><path d="m0 0 24.09-24.09L43.521-4.631c5.255 5.227 6.477 10 6.477 15.056v.853L48.55 65.991l-23.466.625.824-31.249c0-.284.029-.568.029-.852 0-5.057-1.25-9.829-6.506-15.084z" style="fill-opacity:1;fill-rule:evenodd;stroke:none" transform="translate(198.006 180.56)" fill="#fbba58" data-original="#fbba58"></path><path d="m0 0 220.902 220.87c8.835 8.834 10.511 10.539 14.375 22.442l20.88 64.457c1.307 4.09-1.306 6.732-5.397 5.397l-17.954-5.795-18.523-57.242c-3.863-11.874-5.539-13.579-14.374-22.413L-.71 27.101 0 .853Z" style="fill-opacity:1;fill-rule:evenodd;stroke:none" transform="translate(248.004 190.985)" fill="#dddaec" data-original="#dddaec"></path><path d="M0 0c11.761-11.761 34.09-13.011 47.101 0 12.983 13.011 12.983 34.089 0 47.072L28.21 65.963c12.982-12.983 12.982-34.089 0-47.072-9.659-9.659-24.432-11.476-36.221-6.96C-6.392 7.784-3.75 3.75 0 0" style="fill-opacity:1;fill-rule:evenodd;stroke:none" transform="translate(209.823 74.57)" fill="#fd5424" data-original="#fd5424"></path><path d="m0 0-15.597 15.596-85.309-85.308 15.595-15.596L0 0" style="fill-opacity:1;fill-rule:evenodd;stroke:none" transform="translate(177.523 139.794)" fill="#2b4d66" data-original="#2b4d66"></path><path d="M0 0c16.591-16.59 43.465-16.59 60.056 0 9.431 9.432 13.522 22.215 12.215 34.544L56.675 50.14a43.431 43.431 0 0 0-.824-13.949 42.403 42.403 0 0 0-11.392-20.595C30.567 1.705 9.46-.54-6.789 8.835-4.971 5.653-2.698 2.699 0 0" style="fill-opacity:1;fill-rule:evenodd;stroke:none" transform="translate(19.942 19.942)" fill="#fbba58" data-original="#fbba58"></path><path d="m0 0-21.704-21.732" style="stroke-width:15;stroke-linecap:round;stroke-linejoin:round;stroke-miterlimit:10;stroke-dasharray:none;stroke-opacity:1" transform="translate(73.322 73.35)" fill="none" stroke="#000000" stroke-width="15" stroke-linecap="round" stroke-linejoin="round" stroke-miterlimit="10" stroke-dasharray="none" stroke-opacity="" data-original="#000000" class=""></path><path d="m0 0 98.065 98.035c8.835 8.834 10.511 10.539 14.375 22.442l20.88 64.457c1.307 4.09-1.306 6.732-5.397 5.397l-64.458-20.88c-11.903-3.863-13.609-5.539-22.444-14.374L-179.853-65.792m57.016-57.043 98.321 98.291" style="stroke-width:15;stroke-linecap:round;stroke-linejoin:round;stroke-miterlimit:10;stroke-dasharray:none;stroke-opacity:1" transform="translate(370.84 313.82)" fill="none" stroke="#000000" stroke-width="15" stroke-linecap="round" stroke-linejoin="round" stroke-miterlimit="10" stroke-dasharray="none" stroke-opacity="" data-original="#000000" class=""></path><path d="m0 0-58.946-58.946" style="stroke-width:15;stroke-linecap:round;stroke-linejoin:round;stroke-miterlimit:10;stroke-dasharray:none;stroke-opacity:1" transform="translate(305.502 305.496)" fill="none" stroke="#000000" stroke-width="15" stroke-linecap="round" stroke-linejoin="round" stroke-miterlimit="10" stroke-dasharray="none" stroke-opacity="" data-original="#000000" class=""></path><path d="m0 0 37.755-37.725" style="stroke-width:15;stroke-linecap:round;stroke-linejoin:round;stroke-miterlimit:10;stroke-dasharray:none;stroke-opacity:1" transform="translate(82.895 120.647)" fill="none" stroke="#000000" stroke-width="15" stroke-linecap="round" stroke-linejoin="round" stroke-miterlimit="10" stroke-dasharray="none" stroke-opacity="" data-original="#000000" class=""></path><path d="m0 0 37.727-37.725" style="stroke-width:15;stroke-linecap:round;stroke-linejoin:round;stroke-miterlimit:10;stroke-dasharray:none;stroke-opacity:1" transform="translate(111.36 149.083)" fill="none" stroke="#000000" stroke-width="15" stroke-linecap="round" stroke-linejoin="round" stroke-miterlimit="10" stroke-dasharray="none" stroke-opacity="" data-original="#000000" class=""></path><path d="m0 0-85.338-85.308 37.754-37.725 85.311 85.308" style="stroke-width:15;stroke-linecap:round;stroke-linejoin:round;stroke-miterlimit:10;stroke-dasharray:none;stroke-opacity:1" transform="translate(139.797 177.52)" fill="none" stroke="#000000" stroke-width="15" stroke-linecap="round" stroke-linejoin="round" stroke-miterlimit="10" stroke-dasharray="none" stroke-opacity="" data-original="#000000" class=""></path><path d="M0 0c-12.301 1.307-25.085-2.755-34.517-12.215-16.589-16.562-16.589-43.464 0-60.054 16.591-16.59 43.465-16.59 60.056 0 9.432 9.432 13.523 22.215 12.215 34.544z" style="stroke-width:15;stroke-linecap:round;stroke-linejoin:round;stroke-miterlimit:10;stroke-dasharray:none;stroke-opacity:1" transform="translate(54.459 92.211)" fill="none" stroke="#000000" stroke-width="15" stroke-linecap="round" stroke-linejoin="round" stroke-miterlimit="10" stroke-dasharray="none" stroke-opacity="" data-original="#000000" class=""></path><path d="m0 0 19.432 19.459c5.539 5.54 6.619 10.511 6.476 15.909L24.46 90.081l-54.743 1.448c-5.369.142-10.369-.937-15.908-6.477l-19.432-19.43" style="stroke-width:15;stroke-linecap:round;stroke-linejoin:round;stroke-miterlimit:10;stroke-dasharray:none;stroke-opacity:1" transform="translate(222.096 156.47)" fill="none" stroke="#000000" stroke-width="15" stroke-linecap="round" stroke-linejoin="round" stroke-miterlimit="10" stroke-dasharray="none" stroke-opacity="" data-original="#000000" class=""></path><path d="m0 0-55.708 55.679c-13.012 13.01-34.09 13.01-47.102 0-12.982-13.011-11.76-35.311 0-47.1C-91.02-3.182-76.418-3.949-63.861 2.585l45.169-45.168 45.169-45.168c-6.535-12.557-5.767-27.158 5.994-38.919 11.76-11.761 34.09-13.011 47.1 0 12.984 13.011 12.984 34.089 0 47.072L24.517-24.544" style="stroke-width:15;stroke-linecap:round;stroke-linejoin:round;stroke-miterlimit:10;stroke-dasharray:none;stroke-opacity:1" transform="translate(177.352 201.24)" fill="none" stroke="#000000" stroke-width="15" stroke-linecap="round" stroke-linejoin="round" stroke-miterlimit="10" stroke-dasharray="none" stroke-opacity="" data-original="#000000" class=""></path></g></g></svg>